PathFileType	4	(X/Y/Z)	..\data\2015026\dynamic\2015026_C4_04.trc
DataRate	CameraRate	NumFrames	NumMarkers	Units	OrigDataRate	OrigDataStartFrame	OrigNumFrames
100.000000	100.000000	4	48	mm	100.000000	60	160
Frame#	Time	L_IAS			L_IPS			R_IPS			R_IAS			L_FTC			L_FLE			L_FAX			L_TTC			L_FAL			L_FCC			L_FM1			L_FM2			L_FM5			R_FTC			R_FLE			R_FAX			R_TTC			R_FAL			R_FCC			R_FM1			R_FM2			R_FM5			CV7			TV10			SXS			SJN			L_SIA			L_SRS			L_SAA			L_SAE			L_HLE			L_HME			L_UOA			L_RSP			L_UHE			L_HM2			L_HM5			R_SIA			R_SRS			R_SAA			R_SAE			R_HLE			R_HME			R_UOA			R_RSP			R_UHE			R_HM2			R_HM5			
		X1	Y1	Z1	X2	Y2	Z2	X3	Y3	Z3	X4	Y4	Z4	X5	Y5	Z5	X6	Y6	Z6	X7	Y7	Z7	X8	Y8	Z8	X9	Y9	Z9	X10	Y10	Z10	X11	Y11	Z11	X12	Y12	Z12	X13	Y13	Z13	X14	Y14	Z14	X15	Y15	Z15	X16	Y16	Z16	X17	Y17	Z17	X18	Y18	Z18	X19	Y19	Z19	X20	Y20	Z20	X21	Y21	Z21	X22	Y22	Z22	X23	Y23	Z23	X24	Y24	Z24	X25	Y25	Z25	X26	Y26	Z26	X27	Y27	Z27	X28	Y28	Z28	X29	Y29	Z29	X30	Y30	Z30	X31	Y31	Z31	X32	Y32	Z32	X33	Y33	Z33	X34	Y34	Z34	X35	Y35	Z35	X36	Y36	Z36	X37	Y37	Z37	X38	Y38	Z38	X39	Y39	Z39	X40	Y40	Z40	X41	Y41	Z41	X42	Y42	Z42	X43	Y43	Z43	X44	Y44	Z44	X45	Y45	Z45	X46	Y46	Z46	X47	Y47	Z47	X48	Y48	Z48	

61	0.6	584.7842407226564	921.0981445312502	-351.6623535156251	393.1907958984376	916.6672973632815	-288.6289062500001	398.3197326660157	923.3218383789065	-175.9144744873047	588.0259399414064	920.677185058594	-127.4839935302735	502.8700256347657	836.5894775390627	-412.2944641113282	429.2800903320314	429.9447631835939	-356.4716491699219	381.0184936523438	396.6476440429689	-363.7310485839844	423.0609130859376	355.6769714355469	-304.8908691406251	173.4952392578125	124.3025131225586	-362.2339172363282	106.3339462280274	107.6335525512696	-332.7127990722657	258.4202270507813	17.67812156677246	-268.6255798339844	277.6716613769532	29.25711822509766	-321.8299560546876	239.1928863525391	23.03057098388672	-380.1199035644532	509.2613220214845	830.5317993164065	-62.74252319335939	691.9810180664064	467.0982360839845	-125.7409744262696	682.7321777343751	402.8558349609376	-121.2739410400391	741.0712890625001	405.0767822265626	-170.8646697998047	749.8009033203126	62.6097869873047	-131.0008850097657	714.4128417968751	15.75388526916504	-173.6976470947266	906.071472167969	47.23506927490235	-207.6976470947266	902.3210449218752	54.49010467529298	-153.7998046875	864.1523437500002	29.92263412475587	-109.8447418212891	436.7820434570314	1407.348510742188	-234.6983795166016	359.9661865234376	1168.957763671875	-254.9192504882813	586.2191772460939	1107.062866210938	-242.4949188232422	555.4157104492189	1318.5439453125	-241.0889129638672	362.7031860351563	1209.135620117188	-334.9404296875001	392.9076538085939	1340.216186523438	-328.6481933593751	441.8842163085939	1349.746826171875	-407.7401123046876	485.692840576172	1347.918701171875	-421.9365539550782	538.9594116210939	1047.342651367188	-503.0389404296876	492.9553222656251	1024.12890625	-439.7720336914064	503.5114135742189	1021.049011230469	-486.6826171875001	682.9586791992189	850.5386352539065	-435.8853149414064	631.4212036132814	830.818298339844	-490.5596008300782	733.6801147460939	785.872985839844	-438.3902282714845	653.3971557617189	758.6758422851564	-490.2993164062501	349.7728271484376	1204.975830078125	-175.8764953613282	384.492401123047	1335.655517578125	-198.7727355957032	422.446746826172	1344.299194335938	-90.09199523925783	472.0847778320314	1337.694580078125	-61.43531799316408	393.0186157226564	1030.445068359375	-32.01074600219727	387.5046386718751	1019.317687988281	-109.9125289916992	366.2698059082032	1015.412841796875	-68.5620803833008	443.9334106445314	782.2872314453127	-16.79306030273438	365.8487548828126	789.2827148437502	-29.82700157165528	439.6444702148439	694.8423461914064	-7.606521606445314	346.1921386718751	720.3033447265626	-32.78322219848634	
62	0.61	599.2128906250001	922.0035400390627	-349.0386352539063	407.5844116210939	917.3828125000002	-287.2794799804688	412.0509338378907	924.9316406250002	-174.4368743896485	601.7966918945314	922.801940917969	-125.0355682373047	518.7589721679689	836.524108886719	-410.1917114257814	449.387420654297	429.3496093750001	-356.3345031738282	400.4307556152345	397.2733459472657	-363.2786865234376	442.6455078125001	354.6104125976563	-305.9750976562501	183.5021057128907	132.7053985595703	-362.6246032714844	116.3389663696289	120.1320953369141	-331.7893066406251	258.6777648925782	19.32657623291016	-268.8876342773438	277.9970703125001	29.37435722351075	-321.6174926757813	240.9027252197266	25.51485443115235	-379.4535217285157	523.1032714843751	832.9108886718752	-60.57820892333986	704.1048583984376	467.9730224609376	-124.8329696655274	694.0384521484376	403.8830566406251	-120.4189529418946	751.6770019531251	404.9465637207032	-170.6861267089844	751.5991821289064	62.02170562744142	-131.3800354003907	713.9077758789064	16.41598129272461	-173.83056640625	907.3701782226565	41.3767204284668	-209.0043029785157	904.217956542969	49.39011764526369	-154.7756042480469	864.8576660156252	26.25130081176759	-109.9824523925782	450.1598205566407	1408.435913085938	-232.3532104492188	373.6795349121094	1169.886108398438	-252.6372528076172	600.5201416015626	1108.753051757813	-240.5608367919922	568.8259277343751	1319.907958984375	-239.1958770751954	376.1423339843751	1210.024047851563	-332.5646972656251	406.0078125000001	1341.154418945313	-326.2150878906251	454.7406616210939	1350.871826171875	-405.3929748535157	498.3786621093751	1349.068237304688	-419.8862304687501	548.9819946289064	1048.003662109375	-500.9908447265626	503.4519653320314	1025.279052734375	-437.1983337402345	513.5873413085939	1021.996826171875	-484.2577209472657	691.8778076171876	849.8917236328127	-434.7574768066407	639.6399536132814	830.6400146484377	-488.9275207519532	742.0943603515626	784.895935058594	-437.760955810547	661.0130615234376	758.2745971679689	-488.7657165527345	363.8017578125001	1205.937744140625	-173.1702728271485	398.099334716797	1336.675048828125	-196.198959350586	436.5140686035157	1345.466918945313	-87.68379974365236	486.3763427734376	1338.966796875	-59.35405731201173	408.2125854492189	1031.563354492188	-29.57536888122559	402.2869262695314	1020.483154296875	-107.4852752685547	381.3073730468751	1016.534729003906	-66.00902557373048	459.1031188964845	783.2666015625002	-14.81661605834961	381.0101623535157	790.4760742187502	-27.11817932128907	454.7195129394532	695.7959594726564	-5.878572940826417	361.1311645507813	721.6673583984376	-30.15417861938477	
63	0.62	613.4837646484376	923.0244750976565	-346.3629455566407	421.8493652343751	918.2728271484377	-285.9260559082032	425.6572570800782	926.7629394531252	-172.9606018066407	615.4658203125001	925.1818847656252	-122.5560760498047	534.7642822265626	836.5684204101565	-408.0585937500001	470.4652709960939	428.8143615722657	-356.3413085937501	420.9177246093751	398.039276123047	-362.9243469238282	463.4485473632814	353.6517639160157	-307.4383850097657	195.1121673583985	141.3227081298828	-362.7932434082032	128.2727966308594	132.8463897705078	-330.4883728027344	260.2042541503907	21.52783584594727	-269.2409057617188	279.4313659667969	29.88774490356446	-321.4447326660157	243.803695678711	28.64298629760743	-378.7167663574219	536.7228393554689	835.5208740234377	-58.38601684570314	715.2885131835939	468.7728271484376	-123.8531570434571	704.4398803710939	404.8513488769532	-119.4889450073242	761.4176635742189	404.813201904297	-170.3853149414063	753.1387329101564	61.67814254760744	-131.6204376220703	713.4342651367189	17.14224433898926	-173.8328857421875	908.3452148437502	36.44681549072266	-210.0987854003907	905.815856933594	45.22143554687501	-155.561019897461	865.448181152344	23.372953414917	-109.8556213378907	463.4510498046876	1409.749145507813	-230.1027832031251	387.3216552734376	1171.0400390625	-250.4334106445313	614.7221069335939	1110.637084960938	-238.6118774414063	582.1748657226564	1321.501586914063	-237.3413085937501	389.5401916503907	1211.15478515625	-330.2986755371094	419.0930175781251	1342.323486328125	-323.8699645996094	467.598358154297	1352.23779296875	-403.1338195800782	511.0998840332032	1350.43994140625	-417.8798828125001	558.9113769531251	1048.859375	-498.9472961425782	513.7730712890626	1026.675170898438	-434.6621398925782	523.5049438476564	1023.197326660156	-481.8829650878907	700.2855834960939	849.218688964844	-433.6962890625001	647.3713378906251	830.556823730469	-487.3921508789064	749.8249511718751	783.7331542968752	-437.1495666503907	667.9594726562501	757.9446411132814	-487.3625488281251	377.8078002929688	1207.096435546875	-170.5287017822266	411.6583557128907	1337.898803710938	-193.6965789794922	450.5039367675782	1346.877075195313	-85.34710693359376	500.5902404785157	1340.505981445313	-57.33763122558595	423.4280090332032	1032.923583984375	-27.08804321289063	417.124481201172	1021.846496582031	-104.9998245239258	396.3739624023439	1017.844299316406	-63.39057922363283	474.6706848144532	784.559753417969	-12.695463180542	396.5733032226564	791.876647949219	-24.28804588317872	470.3445739746095	697.0675659179689	-3.99040722846985	376.5825195312501	723.1766967773439	-27.39137077331544	
64	0.63	627.5381469726564	924.1258544921877	-343.6930236816407	435.9245605468751	919.3116455078127	-284.5401916503907	439.123260498047	928.7693481445315	-171.4640045166016	629.0147705078126	927.7397460937502	-120.0834274291992	550.7492675781251	836.7254638671877	-405.8988342285157	492.3978881835939	428.3773498535157	-356.4560852050782	442.3693237304689	398.9799804687501	-362.6395874023438	485.3365173339845	352.8488464355469	-309.1905822753907	208.3696289062501	150.0042114257813	-362.6694946289063	142.1439056396485	145.4793853759766	-328.7860412597657	263.4981079101563	24.27998161315919	-269.6963195800782	282.4435119628907	30.88548660278321	-321.3424682617188	248.2673034667969	32.44087219238282	-377.9350280761719	550.1013183593751	838.2891845703127	-56.18042755126955	725.4979248046876	469.4647216796876	-122.8028106689453	713.8851318359376	405.7163391113282	-118.4917602539063	770.2676391601565	404.6504516601564	-169.9491271972657	754.4762573242189	61.54134750366212	-131.7361755371094	713.0855712890626	17.87104988098145	-173.7190704345703	909.070983886719	32.47562789916993	-210.9853820800782	907.1728515625002	41.99962997436524	-156.1707763671875	865.9986572265627	21.27667617797852	-109.5143051147461	476.6499633789064	1411.247802734375	-227.9660949707032	400.8591613769532	1172.392578125	-248.3078155517579	628.7568359375001	1112.640258789063	-236.6900787353516	595.4461669921876	1323.2744140625	-235.5509796142579	402.8563232421876	1212.498168945313	-328.1460266113282	432.1412353515626	1343.692260742188	-321.6282958984376	480.4277343750001	1353.800048828125	-400.985809326172	523.8297729492189	1351.9853515625	-415.9406738281251	568.7741088867189	1049.873168945313	-496.917449951172	523.9368896484376	1028.27294921875	-432.1831359863282	533.2882690429689	1024.613403320313	-479.5724182128907	708.2180786132814	848.5141601562502	-432.7013549804689	654.6652832031251	830.5545654296877	-485.9593811035157	756.9027709960939	782.3813476562502	-436.5324096679689	674.2866210937501	757.6800537109376	-486.084442138672	391.7484741210939	1208.425415039063	-167.9765167236328	425.1526794433595	1339.294311523438	-191.2864990234375	464.4029541015626	1348.48583984375	-83.10196685791017	514.7102661132814	1342.261962890625	-55.40467834472658	438.6469726562501	1034.476928710938	-24.55517005920411	431.9919738769532	1023.349609375	-102.4582138061524	411.4498901367189	1019.290344238281	-60.70851898193361	490.6261291503907	786.1306152343752	-10.42831134796143	412.526580810547	793.4321899414065	-21.34810066223145	486.5227355957032	698.6248779296876	-1.921618223190308	392.5474243164064	724.7713623046876	-24.4919605255127	
